<mxfile host="app.diagrams.net" modified="2021-02-28T23:48:20.936Z" agent="5.0 (Macintosh; Intel Mac OS X 11_2_1) AppleWebKit/537.36 (KHTML, like Gecko) Chrome/88.0.4324.192 Safari/537.36" etag="kaR02Vqjwkt3YuOnC9JR" version="14.4.3" type="github">
  <diagram id="TXsH7dUHK2AJdoG5btON" name="Page-1">
    <mxGraphModel dx="1413" dy="719" grid="1" gridSize="10" guides="1" tooltips="1" connect="1" arrows="1" fold="1" page="1" pageScale="1" pageWidth="850" pageHeight="1100" math="0" shadow="0">
      <root>
        <mxCell id="0" />
        <mxCell id="1" parent="0" />
        <mxCell id="nlGNvuuSfk-lhknSh3Hi-1" value="MapSite" style="swimlane;fontStyle=1;align=center;verticalAlign=top;childLayout=stackLayout;horizontal=1;startSize=26;horizontalStack=0;resizeParent=1;resizeParentMax=0;resizeLast=0;collapsible=1;marginBottom=0;" parent="1" vertex="1">
          <mxGeometry x="450" y="180" width="160" height="60" as="geometry" />
        </mxCell>
        <mxCell id="nlGNvuuSfk-lhknSh3Hi-3" value="" style="line;strokeWidth=1;fillColor=none;align=left;verticalAlign=middle;spacingTop=-1;spacingLeft=3;spacingRight=3;rotatable=0;labelPosition=right;points=[];portConstraint=eastwest;" parent="nlGNvuuSfk-lhknSh3Hi-1" vertex="1">
          <mxGeometry y="26" width="160" height="8" as="geometry" />
        </mxCell>
        <mxCell id="nlGNvuuSfk-lhknSh3Hi-4" value="+ Enter()" style="text;strokeColor=none;fillColor=none;align=left;verticalAlign=top;spacingLeft=4;spacingRight=4;overflow=hidden;rotatable=0;points=[[0,0.5],[1,0.5]];portConstraint=eastwest;" parent="nlGNvuuSfk-lhknSh3Hi-1" vertex="1">
          <mxGeometry y="34" width="160" height="26" as="geometry" />
        </mxCell>
        <mxCell id="nlGNvuuSfk-lhknSh3Hi-5" value="Room" style="swimlane;fontStyle=1;align=center;verticalAlign=top;childLayout=stackLayout;horizontal=1;startSize=26;horizontalStack=0;resizeParent=1;resizeParentMax=0;resizeLast=0;collapsible=1;marginBottom=0;" parent="1" vertex="1">
          <mxGeometry x="240" y="350" width="160" height="60" as="geometry" />
        </mxCell>
        <mxCell id="nlGNvuuSfk-lhknSh3Hi-6" value="" style="line;strokeWidth=1;fillColor=none;align=left;verticalAlign=middle;spacingTop=-1;spacingLeft=3;spacingRight=3;rotatable=0;labelPosition=right;points=[];portConstraint=eastwest;" parent="nlGNvuuSfk-lhknSh3Hi-5" vertex="1">
          <mxGeometry y="26" width="160" height="8" as="geometry" />
        </mxCell>
        <mxCell id="nlGNvuuSfk-lhknSh3Hi-7" value="+ Enter()" style="text;strokeColor=none;fillColor=none;align=left;verticalAlign=top;spacingLeft=4;spacingRight=4;overflow=hidden;rotatable=0;points=[[0,0.5],[1,0.5]];portConstraint=eastwest;" parent="nlGNvuuSfk-lhknSh3Hi-5" vertex="1">
          <mxGeometry y="34" width="160" height="26" as="geometry" />
        </mxCell>
        <mxCell id="nlGNvuuSfk-lhknSh3Hi-8" value="Door" style="swimlane;fontStyle=1;align=center;verticalAlign=top;childLayout=stackLayout;horizontal=1;startSize=26;horizontalStack=0;resizeParent=1;resizeParentMax=0;resizeLast=0;collapsible=1;marginBottom=0;" parent="1" vertex="1">
          <mxGeometry x="450" y="350" width="160" height="60" as="geometry" />
        </mxCell>
        <mxCell id="nlGNvuuSfk-lhknSh3Hi-9" value="" style="line;strokeWidth=1;fillColor=none;align=left;verticalAlign=middle;spacingTop=-1;spacingLeft=3;spacingRight=3;rotatable=0;labelPosition=right;points=[];portConstraint=eastwest;" parent="nlGNvuuSfk-lhknSh3Hi-8" vertex="1">
          <mxGeometry y="26" width="160" height="8" as="geometry" />
        </mxCell>
        <mxCell id="nlGNvuuSfk-lhknSh3Hi-10" value="+ Enter()" style="text;strokeColor=none;fillColor=none;align=left;verticalAlign=top;spacingLeft=4;spacingRight=4;overflow=hidden;rotatable=0;points=[[0,0.5],[1,0.5]];portConstraint=eastwest;" parent="nlGNvuuSfk-lhknSh3Hi-8" vertex="1">
          <mxGeometry y="34" width="160" height="26" as="geometry" />
        </mxCell>
        <mxCell id="nlGNvuuSfk-lhknSh3Hi-11" value="Wall" style="swimlane;fontStyle=1;align=center;verticalAlign=top;childLayout=stackLayout;horizontal=1;startSize=26;horizontalStack=0;resizeParent=1;resizeParentMax=0;resizeLast=0;collapsible=1;marginBottom=0;" parent="1" vertex="1">
          <mxGeometry x="650" y="350" width="160" height="60" as="geometry" />
        </mxCell>
        <mxCell id="nlGNvuuSfk-lhknSh3Hi-12" value="" style="line;strokeWidth=1;fillColor=none;align=left;verticalAlign=middle;spacingTop=-1;spacingLeft=3;spacingRight=3;rotatable=0;labelPosition=right;points=[];portConstraint=eastwest;" parent="nlGNvuuSfk-lhknSh3Hi-11" vertex="1">
          <mxGeometry y="26" width="160" height="8" as="geometry" />
        </mxCell>
        <mxCell id="nlGNvuuSfk-lhknSh3Hi-13" value="+ Enter()" style="text;strokeColor=none;fillColor=none;align=left;verticalAlign=top;spacingLeft=4;spacingRight=4;overflow=hidden;rotatable=0;points=[[0,0.5],[1,0.5]];portConstraint=eastwest;" parent="nlGNvuuSfk-lhknSh3Hi-11" vertex="1">
          <mxGeometry y="34" width="160" height="26" as="geometry" />
        </mxCell>
        <mxCell id="nlGNvuuSfk-lhknSh3Hi-14" value="Maze" style="swimlane;fontStyle=1;align=center;verticalAlign=top;childLayout=stackLayout;horizontal=1;startSize=26;horizontalStack=0;resizeParent=1;resizeParentMax=0;resizeLast=0;collapsible=1;marginBottom=0;" parent="1" vertex="1">
          <mxGeometry x="20" y="350" width="160" height="60" as="geometry" />
        </mxCell>
        <mxCell id="nlGNvuuSfk-lhknSh3Hi-15" value="" style="line;strokeWidth=1;fillColor=none;align=left;verticalAlign=middle;spacingTop=-1;spacingLeft=3;spacingRight=3;rotatable=0;labelPosition=right;points=[];portConstraint=eastwest;" parent="nlGNvuuSfk-lhknSh3Hi-14" vertex="1">
          <mxGeometry y="26" width="160" height="8" as="geometry" />
        </mxCell>
        <mxCell id="nlGNvuuSfk-lhknSh3Hi-16" value="+ Enter()" style="text;strokeColor=none;fillColor=none;align=left;verticalAlign=top;spacingLeft=4;spacingRight=4;overflow=hidden;rotatable=0;points=[[0,0.5],[1,0.5]];portConstraint=eastwest;" parent="nlGNvuuSfk-lhknSh3Hi-14" vertex="1">
          <mxGeometry y="34" width="160" height="26" as="geometry" />
        </mxCell>
        <mxCell id="nlGNvuuSfk-lhknSh3Hi-21" value="1" style="endArrow=none;html=1;endSize=12;startArrow=diamondThin;startSize=14;startFill=1;edgeStyle=orthogonalEdgeStyle;align=left;verticalAlign=bottom;endFill=0;exitX=1;exitY=0.5;exitDx=0;exitDy=0;entryX=0;entryY=0.5;entryDx=0;entryDy=0;" parent="1" source="nlGNvuuSfk-lhknSh3Hi-14" target="nlGNvuuSfk-lhknSh3Hi-5" edge="1">
          <mxGeometry x="-1" y="3" relative="1" as="geometry">
            <mxPoint x="220" y="500" as="sourcePoint" />
            <mxPoint x="310" y="500" as="targetPoint" />
            <Array as="points">
              <mxPoint x="210" y="380" />
              <mxPoint x="210" y="380" />
            </Array>
          </mxGeometry>
        </mxCell>
        <mxCell id="nlGNvuuSfk-lhknSh3Hi-22" value="" style="endArrow=none;html=1;endSize=12;startArrow=diamondThin;startSize=14;startFill=0;edgeStyle=orthogonalEdgeStyle;exitX=0.5;exitY=0;exitDx=0;exitDy=0;entryX=0;entryY=0.5;entryDx=0;entryDy=0;endFill=0;" parent="1" source="nlGNvuuSfk-lhknSh3Hi-5" target="nlGNvuuSfk-lhknSh3Hi-1" edge="1">
          <mxGeometry relative="1" as="geometry">
            <mxPoint x="530" y="510" as="sourcePoint" />
            <mxPoint x="690" y="510" as="targetPoint" />
          </mxGeometry>
        </mxCell>
        <mxCell id="nlGNvuuSfk-lhknSh3Hi-24" value="1" style="edgeLabel;resizable=0;html=1;align=right;verticalAlign=top;" parent="nlGNvuuSfk-lhknSh3Hi-22" connectable="0" vertex="1">
          <mxGeometry x="1" relative="1" as="geometry" />
        </mxCell>
        <mxCell id="nlGNvuuSfk-lhknSh3Hi-25" value="" style="endArrow=block;endSize=16;endFill=0;html=1;exitX=0.5;exitY=0;exitDx=0;exitDy=0;entryX=0.5;entryY=1.038;entryDx=0;entryDy=0;entryPerimeter=0;edgeStyle=orthogonalEdgeStyle;" parent="1" source="nlGNvuuSfk-lhknSh3Hi-5" target="nlGNvuuSfk-lhknSh3Hi-4" edge="1">
          <mxGeometry width="160" relative="1" as="geometry">
            <mxPoint x="530" y="510" as="sourcePoint" />
            <mxPoint x="690" y="510" as="targetPoint" />
          </mxGeometry>
        </mxCell>
        <mxCell id="nlGNvuuSfk-lhknSh3Hi-26" value="" style="endArrow=block;endSize=16;endFill=0;html=1;exitX=0.5;exitY=0;exitDx=0;exitDy=0;edgeStyle=orthogonalEdgeStyle;entryX=0.5;entryY=1.038;entryDx=0;entryDy=0;entryPerimeter=0;" parent="1" source="nlGNvuuSfk-lhknSh3Hi-8" target="nlGNvuuSfk-lhknSh3Hi-4" edge="1">
          <mxGeometry width="160" relative="1" as="geometry">
            <mxPoint x="330" y="360" as="sourcePoint" />
            <mxPoint x="470" y="300" as="targetPoint" />
          </mxGeometry>
        </mxCell>
        <mxCell id="nlGNvuuSfk-lhknSh3Hi-27" value="" style="endArrow=block;endSize=16;endFill=0;html=1;exitX=0.5;exitY=0;exitDx=0;exitDy=0;edgeStyle=orthogonalEdgeStyle;" parent="1" source="nlGNvuuSfk-lhknSh3Hi-11" edge="1" target="nlGNvuuSfk-lhknSh3Hi-4">
          <mxGeometry width="160" relative="1" as="geometry">
            <mxPoint x="340" y="370" as="sourcePoint" />
            <mxPoint x="400" y="280" as="targetPoint" />
          </mxGeometry>
        </mxCell>
        <mxCell id="5iFGNc_Or3QthpzFmU8G-1" value="MazeFactory" style="swimlane;fontStyle=1;align=center;verticalAlign=top;childLayout=stackLayout;horizontal=1;startSize=26;horizontalStack=0;resizeParent=1;resizeParentMax=0;resizeLast=0;collapsible=1;marginBottom=0;" parent="1" vertex="1">
          <mxGeometry x="320" y="670" width="160" height="120" as="geometry" />
        </mxCell>
        <mxCell id="5iFGNc_Or3QthpzFmU8G-2" value="" style="line;strokeWidth=1;fillColor=none;align=left;verticalAlign=middle;spacingTop=-1;spacingLeft=3;spacingRight=3;rotatable=0;labelPosition=right;points=[];portConstraint=eastwest;" parent="5iFGNc_Or3QthpzFmU8G-1" vertex="1">
          <mxGeometry y="26" width="160" height="8" as="geometry" />
        </mxCell>
        <mxCell id="5iFGNc_Or3QthpzFmU8G-3" value="+ makeMaze() : Maze&#xa;+ makeWall() : Wall&#xa;+ makeDoor() : Door&#xa;+ makeRoom() : Room" style="text;strokeColor=none;fillColor=none;align=left;verticalAlign=top;spacingLeft=4;spacingRight=4;overflow=hidden;rotatable=0;points=[[0,0.5],[1,0.5]];portConstraint=eastwest;" parent="5iFGNc_Or3QthpzFmU8G-1" vertex="1">
          <mxGeometry y="34" width="160" height="86" as="geometry" />
        </mxCell>
        <mxCell id="5iFGNc_Or3QthpzFmU8G-4" value="MazeRed" style="swimlane;fontStyle=1;align=center;verticalAlign=top;childLayout=stackLayout;horizontal=1;startSize=26;horizontalStack=0;resizeParent=1;resizeParentMax=0;resizeLast=0;collapsible=1;marginBottom=0;strokeColor=#FF0000;" parent="1" vertex="1">
          <mxGeometry x="90" y="660" width="160" height="120" as="geometry" />
        </mxCell>
        <mxCell id="5iFGNc_Or3QthpzFmU8G-5" value="" style="line;strokeWidth=1;fillColor=none;align=left;verticalAlign=middle;spacingTop=-1;spacingLeft=3;spacingRight=3;rotatable=0;labelPosition=right;points=[];portConstraint=eastwest;" parent="5iFGNc_Or3QthpzFmU8G-4" vertex="1">
          <mxGeometry y="26" width="160" height="8" as="geometry" />
        </mxCell>
        <mxCell id="5iFGNc_Or3QthpzFmU8G-6" value="+ makeMaze() : Maze&#xa;+ makeWall() : Wall&#xa;+ makeDoor() : Door&#xa;+ makeRoom() : Room" style="text;strokeColor=none;fillColor=none;align=left;verticalAlign=top;spacingLeft=4;spacingRight=4;overflow=hidden;rotatable=0;points=[[0,0.5],[1,0.5]];portConstraint=eastwest;" parent="5iFGNc_Or3QthpzFmU8G-4" vertex="1">
          <mxGeometry y="34" width="160" height="86" as="geometry" />
        </mxCell>
        <mxCell id="5iFGNc_Or3QthpzFmU8G-7" value="MazeBlue" style="swimlane;fontStyle=1;align=center;verticalAlign=top;childLayout=stackLayout;horizontal=1;startSize=26;horizontalStack=0;resizeParent=1;resizeParentMax=0;resizeLast=0;collapsible=1;marginBottom=0;strokeColor=#3333FF;" parent="1" vertex="1">
          <mxGeometry x="600" y="760" width="160" height="120" as="geometry" />
        </mxCell>
        <mxCell id="5iFGNc_Or3QthpzFmU8G-8" value="" style="line;strokeWidth=1;fillColor=none;align=left;verticalAlign=middle;spacingTop=-1;spacingLeft=3;spacingRight=3;rotatable=0;labelPosition=right;points=[];portConstraint=eastwest;" parent="5iFGNc_Or3QthpzFmU8G-7" vertex="1">
          <mxGeometry y="26" width="160" height="8" as="geometry" />
        </mxCell>
        <mxCell id="5iFGNc_Or3QthpzFmU8G-9" value="+ makeMaze() : Maze&#xa;+ makeWall() : Wall&#xa;+ makeDoor() : Door&#xa;+ makeRoom() : Room" style="text;strokeColor=none;fillColor=none;align=left;verticalAlign=top;spacingLeft=4;spacingRight=4;overflow=hidden;rotatable=0;points=[[0,0.5],[1,0.5]];portConstraint=eastwest;" parent="5iFGNc_Or3QthpzFmU8G-7" vertex="1">
          <mxGeometry y="34" width="160" height="86" as="geometry" />
        </mxCell>
        <mxCell id="5iFGNc_Or3QthpzFmU8G-10" value="" style="endArrow=block;endSize=16;endFill=0;html=1;exitX=0;exitY=0.5;exitDx=0;exitDy=0;edgeStyle=orthogonalEdgeStyle;entryX=0.5;entryY=1.012;entryDx=0;entryDy=0;entryPerimeter=0;" parent="1" source="5iFGNc_Or3QthpzFmU8G-9" target="5iFGNc_Or3QthpzFmU8G-3" edge="1">
          <mxGeometry width="160" relative="1" as="geometry">
            <mxPoint x="740" y="360" as="sourcePoint" />
            <mxPoint x="410" y="290" as="targetPoint" />
            <Array as="points">
              <mxPoint x="600" y="840" />
              <mxPoint x="400" y="840" />
            </Array>
          </mxGeometry>
        </mxCell>
        <mxCell id="5iFGNc_Or3QthpzFmU8G-11" value="" style="endArrow=block;endSize=16;endFill=0;html=1;edgeStyle=orthogonalEdgeStyle;entryX=0.506;entryY=1.023;entryDx=0;entryDy=0;entryPerimeter=0;" parent="1" source="5iFGNc_Or3QthpzFmU8G-4" target="5iFGNc_Or3QthpzFmU8G-3" edge="1">
          <mxGeometry width="160" relative="1" as="geometry">
            <mxPoint x="710" y="750" as="sourcePoint" />
            <mxPoint x="410" y="671.0319999999999" as="targetPoint" />
            <Array as="points">
              <mxPoint x="200" y="840" />
              <mxPoint x="401" y="840" />
            </Array>
          </mxGeometry>
        </mxCell>
        <mxCell id="5iFGNc_Or3QthpzFmU8G-12" value="RoomPink" style="swimlane;fontStyle=1;align=center;verticalAlign=top;childLayout=stackLayout;horizontal=1;startSize=26;horizontalStack=0;resizeParent=1;resizeParentMax=0;resizeLast=0;collapsible=1;marginBottom=0;strokeColor=#FF0000;" parent="1" vertex="1">
          <mxGeometry x="31" y="460" width="120" height="60" as="geometry" />
        </mxCell>
        <mxCell id="5iFGNc_Or3QthpzFmU8G-13" value="" style="line;strokeWidth=1;fillColor=none;align=left;verticalAlign=middle;spacingTop=-1;spacingLeft=3;spacingRight=3;rotatable=0;labelPosition=right;points=[];portConstraint=eastwest;" parent="5iFGNc_Or3QthpzFmU8G-12" vertex="1">
          <mxGeometry y="26" width="120" height="8" as="geometry" />
        </mxCell>
        <mxCell id="5iFGNc_Or3QthpzFmU8G-14" value="+ Enter()" style="text;strokeColor=none;fillColor=none;align=left;verticalAlign=top;spacingLeft=4;spacingRight=4;overflow=hidden;rotatable=0;points=[[0,0.5],[1,0.5]];portConstraint=eastwest;" parent="5iFGNc_Or3QthpzFmU8G-12" vertex="1">
          <mxGeometry y="34" width="120" height="26" as="geometry" />
        </mxCell>
        <mxCell id="5iFGNc_Or3QthpzFmU8G-18" value="RoomLightGray" style="swimlane;fontStyle=1;align=center;verticalAlign=top;childLayout=stackLayout;horizontal=1;startSize=26;horizontalStack=0;resizeParent=1;resizeParentMax=0;resizeLast=0;collapsible=1;marginBottom=0;strokeColor=#0000FF;" parent="1" vertex="1">
          <mxGeometry x="163" y="460" width="120" height="60" as="geometry" />
        </mxCell>
        <mxCell id="5iFGNc_Or3QthpzFmU8G-19" value="" style="line;strokeWidth=1;fillColor=none;align=left;verticalAlign=middle;spacingTop=-1;spacingLeft=3;spacingRight=3;rotatable=0;labelPosition=right;points=[];portConstraint=eastwest;" parent="5iFGNc_Or3QthpzFmU8G-18" vertex="1">
          <mxGeometry y="26" width="120" height="8" as="geometry" />
        </mxCell>
        <mxCell id="5iFGNc_Or3QthpzFmU8G-20" value="+ Enter()" style="text;strokeColor=none;fillColor=none;align=left;verticalAlign=top;spacingLeft=4;spacingRight=4;overflow=hidden;rotatable=0;points=[[0,0.5],[1,0.5]];portConstraint=eastwest;" parent="5iFGNc_Or3QthpzFmU8G-18" vertex="1">
          <mxGeometry y="34" width="120" height="26" as="geometry" />
        </mxCell>
        <mxCell id="5iFGNc_Or3QthpzFmU8G-21" value="DoorBrown" style="swimlane;fontStyle=1;align=center;verticalAlign=top;childLayout=stackLayout;horizontal=1;startSize=26;horizontalStack=0;resizeParent=1;resizeParentMax=0;resizeLast=0;collapsible=1;marginBottom=0;strokeColor=#0000FF;" parent="1" vertex="1">
          <mxGeometry x="301" y="460" width="120" height="60" as="geometry" />
        </mxCell>
        <mxCell id="5iFGNc_Or3QthpzFmU8G-22" value="" style="line;strokeWidth=1;fillColor=none;align=left;verticalAlign=middle;spacingTop=-1;spacingLeft=3;spacingRight=3;rotatable=0;labelPosition=right;points=[];portConstraint=eastwest;" parent="5iFGNc_Or3QthpzFmU8G-21" vertex="1">
          <mxGeometry y="26" width="120" height="8" as="geometry" />
        </mxCell>
        <mxCell id="5iFGNc_Or3QthpzFmU8G-23" value="+ Enter()" style="text;strokeColor=none;fillColor=none;align=left;verticalAlign=top;spacingLeft=4;spacingRight=4;overflow=hidden;rotatable=0;points=[[0,0.5],[1,0.5]];portConstraint=eastwest;" parent="5iFGNc_Or3QthpzFmU8G-21" vertex="1">
          <mxGeometry y="34" width="120" height="26" as="geometry" />
        </mxCell>
        <mxCell id="5iFGNc_Or3QthpzFmU8G-24" value="DoorGreen" style="swimlane;fontStyle=1;align=center;verticalAlign=top;childLayout=stackLayout;horizontal=1;startSize=26;horizontalStack=0;resizeParent=1;resizeParentMax=0;resizeLast=0;collapsible=1;marginBottom=0;strokeColor=#FF0000;" parent="1" vertex="1">
          <mxGeometry x="450" y="460" width="120" height="60" as="geometry" />
        </mxCell>
        <mxCell id="5iFGNc_Or3QthpzFmU8G-25" value="" style="line;strokeWidth=1;fillColor=none;align=left;verticalAlign=middle;spacingTop=-1;spacingLeft=3;spacingRight=3;rotatable=0;labelPosition=right;points=[];portConstraint=eastwest;" parent="5iFGNc_Or3QthpzFmU8G-24" vertex="1">
          <mxGeometry y="26" width="120" height="8" as="geometry" />
        </mxCell>
        <mxCell id="5iFGNc_Or3QthpzFmU8G-26" value="+ Enter()" style="text;strokeColor=none;fillColor=none;align=left;verticalAlign=top;spacingLeft=4;spacingRight=4;overflow=hidden;rotatable=0;points=[[0,0.5],[1,0.5]];portConstraint=eastwest;" parent="5iFGNc_Or3QthpzFmU8G-24" vertex="1">
          <mxGeometry y="34" width="120" height="26" as="geometry" />
        </mxCell>
        <mxCell id="5iFGNc_Or3QthpzFmU8G-27" value="WallBlue" style="swimlane;fontStyle=1;align=center;verticalAlign=top;childLayout=stackLayout;horizontal=1;startSize=26;horizontalStack=0;resizeParent=1;resizeParentMax=0;resizeLast=0;collapsible=1;marginBottom=0;strokeColor=#0000FF;" parent="1" vertex="1">
          <mxGeometry x="591" y="460" width="120" height="60" as="geometry" />
        </mxCell>
        <mxCell id="5iFGNc_Or3QthpzFmU8G-28" value="" style="line;strokeWidth=1;fillColor=none;align=left;verticalAlign=middle;spacingTop=-1;spacingLeft=3;spacingRight=3;rotatable=0;labelPosition=right;points=[];portConstraint=eastwest;" parent="5iFGNc_Or3QthpzFmU8G-27" vertex="1">
          <mxGeometry y="26" width="120" height="8" as="geometry" />
        </mxCell>
        <mxCell id="5iFGNc_Or3QthpzFmU8G-29" value="+ Enter()" style="text;strokeColor=none;fillColor=none;align=left;verticalAlign=top;spacingLeft=4;spacingRight=4;overflow=hidden;rotatable=0;points=[[0,0.5],[1,0.5]];portConstraint=eastwest;" parent="5iFGNc_Or3QthpzFmU8G-27" vertex="1">
          <mxGeometry y="34" width="120" height="26" as="geometry" />
        </mxCell>
        <mxCell id="5iFGNc_Or3QthpzFmU8G-30" value="WallRed" style="swimlane;fontStyle=1;align=center;verticalAlign=top;childLayout=stackLayout;horizontal=1;startSize=26;horizontalStack=0;resizeParent=1;resizeParentMax=0;resizeLast=0;collapsible=1;marginBottom=0;strokeColor=#FF0000;" parent="1" vertex="1">
          <mxGeometry x="720" y="260" width="120" height="60" as="geometry" />
        </mxCell>
        <mxCell id="5iFGNc_Or3QthpzFmU8G-31" value="" style="line;strokeWidth=1;fillColor=none;align=left;verticalAlign=middle;spacingTop=-1;spacingLeft=3;spacingRight=3;rotatable=0;labelPosition=right;points=[];portConstraint=eastwest;" parent="5iFGNc_Or3QthpzFmU8G-30" vertex="1">
          <mxGeometry y="26" width="120" height="8" as="geometry" />
        </mxCell>
        <mxCell id="5iFGNc_Or3QthpzFmU8G-32" value="+ Enter()" style="text;strokeColor=none;fillColor=none;align=left;verticalAlign=top;spacingLeft=4;spacingRight=4;overflow=hidden;rotatable=0;points=[[0,0.5],[1,0.5]];portConstraint=eastwest;" parent="5iFGNc_Or3QthpzFmU8G-30" vertex="1">
          <mxGeometry y="34" width="120" height="26" as="geometry" />
        </mxCell>
        <mxCell id="5iFGNc_Or3QthpzFmU8G-33" value="" style="endArrow=block;endSize=16;endFill=0;html=1;edgeStyle=orthogonalEdgeStyle;entryX=0.444;entryY=1.077;entryDx=0;entryDy=0;entryPerimeter=0;exitX=0.5;exitY=0;exitDx=0;exitDy=0;" parent="1" source="5iFGNc_Or3QthpzFmU8G-12" target="nlGNvuuSfk-lhknSh3Hi-7" edge="1">
          <mxGeometry width="160" relative="1" as="geometry">
            <mxPoint x="210" y="750" as="sourcePoint" />
            <mxPoint x="410.96000000000004" y="671.9780000000001" as="targetPoint" />
            <Array as="points">
              <mxPoint x="80" y="440" />
              <mxPoint x="311" y="440" />
            </Array>
          </mxGeometry>
        </mxCell>
        <mxCell id="5iFGNc_Or3QthpzFmU8G-34" value="" style="endArrow=block;endSize=16;endFill=0;html=1;edgeStyle=orthogonalEdgeStyle;exitX=0.5;exitY=0;exitDx=0;exitDy=0;" parent="1" source="5iFGNc_Or3QthpzFmU8G-18" edge="1">
          <mxGeometry width="160" relative="1" as="geometry">
            <mxPoint x="90" y="470" as="sourcePoint" />
            <mxPoint x="310" y="410" as="targetPoint" />
            <Array as="points">
              <mxPoint x="223" y="450" />
              <mxPoint x="310" y="450" />
            </Array>
          </mxGeometry>
        </mxCell>
        <mxCell id="5iFGNc_Or3QthpzFmU8G-35" value="" style="endArrow=block;endSize=16;endFill=0;html=1;edgeStyle=orthogonalEdgeStyle;exitX=0.5;exitY=0;exitDx=0;exitDy=0;entryX=0.544;entryY=1.115;entryDx=0;entryDy=0;entryPerimeter=0;" parent="1" source="5iFGNc_Or3QthpzFmU8G-21" target="nlGNvuuSfk-lhknSh3Hi-10" edge="1">
          <mxGeometry width="160" relative="1" as="geometry">
            <mxPoint x="90" y="470" as="sourcePoint" />
            <mxPoint x="550" y="450" as="targetPoint" />
            <Array as="points">
              <mxPoint x="361" y="450" />
              <mxPoint x="537" y="450" />
            </Array>
          </mxGeometry>
        </mxCell>
        <mxCell id="5iFGNc_Or3QthpzFmU8G-36" value="" style="endArrow=block;endSize=16;endFill=0;html=1;edgeStyle=orthogonalEdgeStyle;entryX=0.55;entryY=1.115;entryDx=0;entryDy=0;entryPerimeter=0;" parent="1" target="nlGNvuuSfk-lhknSh3Hi-10" edge="1">
          <mxGeometry width="160" relative="1" as="geometry">
            <mxPoint x="500" y="460" as="sourcePoint" />
            <mxPoint x="547.04" y="422.99" as="targetPoint" />
            <Array as="points">
              <mxPoint x="538" y="460" />
            </Array>
          </mxGeometry>
        </mxCell>
        <mxCell id="5iFGNc_Or3QthpzFmU8G-37" value="" style="endArrow=block;endSize=16;endFill=0;html=1;edgeStyle=orthogonalEdgeStyle;exitX=0.5;exitY=0;exitDx=0;exitDy=0;entryX=0.45;entryY=1.115;entryDx=0;entryDy=0;entryPerimeter=0;" parent="1" source="5iFGNc_Or3QthpzFmU8G-27" target="nlGNvuuSfk-lhknSh3Hi-13" edge="1">
          <mxGeometry width="160" relative="1" as="geometry">
            <mxPoint x="385" y="470" as="sourcePoint" />
            <mxPoint x="561.04" y="422.99" as="targetPoint" />
            <Array as="points">
              <mxPoint x="651" y="450" />
              <mxPoint x="722" y="450" />
            </Array>
          </mxGeometry>
        </mxCell>
        <mxCell id="5iFGNc_Or3QthpzFmU8G-38" value="" style="endArrow=block;endSize=16;endFill=0;html=1;edgeStyle=orthogonalEdgeStyle;exitX=0.5;exitY=0;exitDx=0;exitDy=0;" parent="1" edge="1">
          <mxGeometry width="160" relative="1" as="geometry">
            <mxPoint x="780" y="460" as="sourcePoint" />
            <mxPoint x="720" y="410" as="targetPoint" />
            <Array as="points">
              <mxPoint x="780" y="450" />
              <mxPoint x="720" y="450" />
            </Array>
          </mxGeometry>
        </mxCell>
        <mxCell id="5iFGNc_Or3QthpzFmU8G-39" value="" style="endArrow=open;endSize=12;dashed=1;html=1;exitX=0.5;exitY=0;exitDx=0;exitDy=0;entryX=0.394;entryY=1;entryDx=0;entryDy=0;entryPerimeter=0;edgeStyle=orthogonalEdgeStyle;elbow=vertical;" parent="1" source="5iFGNc_Or3QthpzFmU8G-1" target="nlGNvuuSfk-lhknSh3Hi-16" edge="1">
          <mxGeometry width="160" relative="1" as="geometry">
            <mxPoint x="220" y="480" as="sourcePoint" />
            <mxPoint x="380" y="480" as="targetPoint" />
            <Array as="points">
              <mxPoint x="400" y="570" />
              <mxPoint x="20" y="570" />
              <mxPoint x="20" y="430" />
              <mxPoint x="83" y="430" />
            </Array>
          </mxGeometry>
        </mxCell>
        <mxCell id="5iFGNc_Or3QthpzFmU8G-41" value="" style="endArrow=open;endSize=12;dashed=1;html=1;edgeStyle=orthogonalEdgeStyle;entryX=0.713;entryY=1.192;entryDx=0;entryDy=0;entryPerimeter=0;" parent="1" target="nlGNvuuSfk-lhknSh3Hi-7" edge="1">
          <mxGeometry width="160" relative="1" as="geometry">
            <mxPoint x="400" y="660" as="sourcePoint" />
            <mxPoint x="191" y="610" as="targetPoint" />
            <Array as="points">
              <mxPoint x="400" y="535" />
              <mxPoint x="430" y="535" />
              <mxPoint x="430" y="430" />
              <mxPoint x="354" y="430" />
            </Array>
          </mxGeometry>
        </mxCell>
        <mxCell id="5iFGNc_Or3QthpzFmU8G-42" value="" style="endArrow=open;endSize=12;dashed=1;html=1;edgeStyle=orthogonalEdgeStyle;entryX=0.388;entryY=1.115;entryDx=0;entryDy=0;entryPerimeter=0;" parent="1" target="nlGNvuuSfk-lhknSh3Hi-10" edge="1">
          <mxGeometry width="160" relative="1" as="geometry">
            <mxPoint x="400" y="660" as="sourcePoint" />
            <mxPoint x="201" y="620" as="targetPoint" />
            <Array as="points">
              <mxPoint x="440" y="660" />
              <mxPoint x="440" y="430" />
              <mxPoint x="512" y="430" />
            </Array>
          </mxGeometry>
        </mxCell>
        <mxCell id="5iFGNc_Or3QthpzFmU8G-43" value="" style="endArrow=open;endSize=12;dashed=1;html=1;edgeStyle=orthogonalEdgeStyle;entryX=0.213;entryY=1.192;entryDx=0;entryDy=0;entryPerimeter=0;" parent="1" target="nlGNvuuSfk-lhknSh3Hi-13" edge="1">
          <mxGeometry width="160" relative="1" as="geometry">
            <mxPoint x="400" y="670" as="sourcePoint" />
            <mxPoint x="211" y="630" as="targetPoint" />
            <Array as="points">
              <mxPoint x="400" y="660" />
              <mxPoint x="580" y="660" />
              <mxPoint x="580" y="440" />
              <mxPoint x="684" y="440" />
            </Array>
          </mxGeometry>
        </mxCell>
        <mxCell id="5iFGNc_Or3QthpzFmU8G-44" value="" style="endArrow=open;endSize=12;dashed=1;html=1;edgeStyle=orthogonalEdgeStyle;entryX=0.475;entryY=1.115;entryDx=0;entryDy=0;entryPerimeter=0;exitX=0;exitY=0.5;exitDx=0;exitDy=0;strokeColor=#FF0000;" parent="1" source="5iFGNc_Or3QthpzFmU8G-4" target="5iFGNc_Or3QthpzFmU8G-14" edge="1">
          <mxGeometry width="160" relative="1" as="geometry">
            <mxPoint x="61" y="640" as="sourcePoint" />
            <mxPoint x="221" y="640" as="targetPoint" />
            <Array as="points">
              <mxPoint x="61" y="720" />
              <mxPoint x="61" y="640" />
              <mxPoint x="88" y="640" />
            </Array>
          </mxGeometry>
        </mxCell>
        <mxCell id="5iFGNc_Or3QthpzFmU8G-45" value="" style="endArrow=open;endSize=12;dashed=1;html=1;edgeStyle=orthogonalEdgeStyle;entryX=0.533;entryY=1.115;entryDx=0;entryDy=0;entryPerimeter=0;strokeColor=#FF0000;" parent="1" edge="1">
          <mxGeometry width="160" relative="1" as="geometry">
            <mxPoint x="90" y="720" as="sourcePoint" />
            <mxPoint x="783.96" y="522.9899999999998" as="targetPoint" />
            <Array as="points">
              <mxPoint x="80" y="720" />
              <mxPoint x="70" y="720" />
              <mxPoint x="70" y="610" />
              <mxPoint x="784" y="610" />
            </Array>
          </mxGeometry>
        </mxCell>
        <mxCell id="5iFGNc_Or3QthpzFmU8G-46" value="" style="endArrow=open;endSize=12;dashed=1;html=1;edgeStyle=orthogonalEdgeStyle;exitX=0.994;exitY=0.279;exitDx=0;exitDy=0;exitPerimeter=0;strokeColor=#FF0000;" parent="1" source="5iFGNc_Or3QthpzFmU8G-6" edge="1">
          <mxGeometry width="160" relative="1" as="geometry">
            <mxPoint x="283.96000000000004" y="832.038" as="sourcePoint" />
            <mxPoint x="520" y="520" as="targetPoint" />
            <Array as="points">
              <mxPoint x="239" y="832" />
              <mxPoint x="310" y="832" />
              <mxPoint x="310" y="650" />
              <mxPoint x="520" y="650" />
            </Array>
          </mxGeometry>
        </mxCell>
        <mxCell id="5iFGNc_Or3QthpzFmU8G-47" value="" style="endArrow=open;endSize=12;dashed=1;html=1;edgeStyle=orthogonalEdgeStyle;entryX=0.558;entryY=1.154;entryDx=0;entryDy=0;entryPerimeter=0;exitX=1;exitY=0.5;exitDx=0;exitDy=0;strokeColor=#3333FF;" parent="1" source="5iFGNc_Or3QthpzFmU8G-9" target="5iFGNc_Or3QthpzFmU8G-20" edge="1">
          <mxGeometry width="160" relative="1" as="geometry">
            <mxPoint x="91" y="670" as="sourcePoint" />
            <mxPoint x="251" y="670" as="targetPoint" />
            <Array as="points">
              <mxPoint x="780" y="837" />
              <mxPoint x="780" y="620" />
              <mxPoint x="230" y="620" />
            </Array>
          </mxGeometry>
        </mxCell>
        <mxCell id="5iFGNc_Or3QthpzFmU8G-48" value="" style="endArrow=open;endSize=12;dashed=1;html=1;edgeStyle=orthogonalEdgeStyle;entryX=0.333;entryY=1.192;entryDx=0;entryDy=0;entryPerimeter=0;exitX=1;exitY=0.5;exitDx=0;exitDy=0;strokeColor=#3333FF;" parent="1" source="5iFGNc_Or3QthpzFmU8G-9" target="5iFGNc_Or3QthpzFmU8G-23" edge="1">
          <mxGeometry width="160" relative="1" as="geometry">
            <mxPoint x="101" y="680" as="sourcePoint" />
            <mxPoint x="261" y="680" as="targetPoint" />
            <Array as="points">
              <mxPoint x="780" y="837" />
              <mxPoint x="780" y="640" />
              <mxPoint x="341" y="640" />
            </Array>
          </mxGeometry>
        </mxCell>
        <mxCell id="5iFGNc_Or3QthpzFmU8G-49" value="" style="endArrow=open;endSize=12;dashed=1;html=1;edgeStyle=orthogonalEdgeStyle;entryX=0.667;entryY=1.115;entryDx=0;entryDy=0;entryPerimeter=0;exitX=1.025;exitY=0.337;exitDx=0;exitDy=0;exitPerimeter=0;strokeColor=#3333FF;" parent="1" source="5iFGNc_Or3QthpzFmU8G-9" target="5iFGNc_Or3QthpzFmU8G-29" edge="1">
          <mxGeometry width="160" relative="1" as="geometry">
            <mxPoint x="111" y="690" as="sourcePoint" />
            <mxPoint x="271" y="690" as="targetPoint" />
            <Array as="points">
              <mxPoint x="780" y="823" />
              <mxPoint x="780" y="720" />
              <mxPoint x="671" y="720" />
            </Array>
          </mxGeometry>
        </mxCell>
        <mxCell id="5iFGNc_Or3QthpzFmU8G-51" value="SimpleMazeGame" style="swimlane;fontStyle=1;align=center;verticalAlign=top;childLayout=stackLayout;horizontal=1;startSize=26;horizontalStack=0;resizeParent=1;resizeParentMax=0;resizeLast=0;collapsible=1;marginBottom=0;" parent="1" vertex="1">
          <mxGeometry x="405" y="880" width="205" height="120" as="geometry" />
        </mxCell>
        <mxCell id="5iFGNc_Or3QthpzFmU8G-52" value="" style="line;strokeWidth=1;fillColor=none;align=left;verticalAlign=middle;spacingTop=-1;spacingLeft=3;spacingRight=3;rotatable=0;labelPosition=right;points=[];portConstraint=eastwest;" parent="5iFGNc_Or3QthpzFmU8G-51" vertex="1">
          <mxGeometry y="26" width="205" height="8" as="geometry" />
        </mxCell>
        <mxCell id="5iFGNc_Or3QthpzFmU8G-53" value="- getMazeFactory() : MazeFactory&#xa;- loadMazeFromFactory() : Maze&#xa;+ main() : void()" style="text;strokeColor=none;fillColor=none;align=left;verticalAlign=top;spacingLeft=4;spacingRight=4;overflow=hidden;rotatable=0;points=[[0,0.5],[1,0.5]];portConstraint=eastwest;" parent="5iFGNc_Or3QthpzFmU8G-51" vertex="1">
          <mxGeometry y="34" width="205" height="86" as="geometry" />
        </mxCell>
        <mxCell id="5iFGNc_Or3QthpzFmU8G-54" value="" style="endArrow=open;endSize=12;dashed=1;html=1;strokeColor=#3333FF;entryX=0.469;entryY=1.035;entryDx=0;entryDy=0;entryPerimeter=0;edgeStyle=orthogonalEdgeStyle;" parent="1" target="5iFGNc_Or3QthpzFmU8G-6" edge="1">
          <mxGeometry width="160" relative="1" as="geometry">
            <mxPoint x="405" y="920" as="sourcePoint" />
            <mxPoint x="420" y="930" as="targetPoint" />
            <Array as="points">
              <mxPoint x="155" y="920" />
              <mxPoint x="155" y="800" />
              <mxPoint x="165" y="800" />
            </Array>
          </mxGeometry>
        </mxCell>
        <mxCell id="5iFGNc_Or3QthpzFmU8G-55" value="" style="endArrow=open;endSize=12;dashed=1;html=1;strokeColor=#3333FF;exitX=0.5;exitY=0;exitDx=0;exitDy=0;edgeStyle=orthogonalEdgeStyle;" parent="1" source="5iFGNc_Or3QthpzFmU8G-51" edge="1">
          <mxGeometry width="160" relative="1" as="geometry">
            <mxPoint x="330" y="1167" as="sourcePoint" />
            <mxPoint x="400" y="790" as="targetPoint" />
            <Array as="points">
              <mxPoint x="426" y="850" />
              <mxPoint x="420" y="850" />
              <mxPoint x="420" y="840" />
              <mxPoint x="400" y="840" />
            </Array>
          </mxGeometry>
        </mxCell>
        <mxCell id="5iFGNc_Or3QthpzFmU8G-56" value="" style="endArrow=open;endSize=12;dashed=1;html=1;strokeColor=#3333FF;exitX=0.75;exitY=0;exitDx=0;exitDy=0;edgeStyle=orthogonalEdgeStyle;" parent="1" source="5iFGNc_Or3QthpzFmU8G-51" edge="1">
          <mxGeometry width="160" relative="1" as="geometry">
            <mxPoint x="432.5" y="1020" as="sourcePoint" />
            <mxPoint x="551" y="810" as="targetPoint" />
            <Array as="points">
              <mxPoint x="474" y="860" />
              <mxPoint x="474" y="810" />
              <mxPoint x="551" y="810" />
            </Array>
          </mxGeometry>
        </mxCell>
        <mxCell id="YsUjoydiSRNC3cudV2yD-1" value="Command&lt;interface&gt;" style="swimlane;fontStyle=1;align=center;verticalAlign=top;childLayout=stackLayout;horizontal=1;startSize=26;horizontalStack=0;resizeParent=1;resizeParentMax=0;resizeLast=0;collapsible=1;marginBottom=0;" vertex="1" parent="1">
          <mxGeometry x="31" y="20" width="160" height="60" as="geometry" />
        </mxCell>
        <mxCell id="YsUjoydiSRNC3cudV2yD-2" value="" style="line;strokeWidth=1;fillColor=none;align=left;verticalAlign=middle;spacingTop=-1;spacingLeft=3;spacingRight=3;rotatable=0;labelPosition=right;points=[];portConstraint=eastwest;" vertex="1" parent="YsUjoydiSRNC3cudV2yD-1">
          <mxGeometry y="26" width="160" height="8" as="geometry" />
        </mxCell>
        <mxCell id="YsUjoydiSRNC3cudV2yD-3" value="+ execute()" style="text;strokeColor=none;fillColor=none;align=left;verticalAlign=top;spacingLeft=4;spacingRight=4;overflow=hidden;rotatable=0;points=[[0,0.5],[1,0.5]];portConstraint=eastwest;" vertex="1" parent="YsUjoydiSRNC3cudV2yD-1">
          <mxGeometry y="34" width="160" height="26" as="geometry" />
        </mxCell>
        <mxCell id="YsUjoydiSRNC3cudV2yD-4" value="UndoableCommand&lt;interface&gt;" style="swimlane;fontStyle=1;align=center;verticalAlign=top;childLayout=stackLayout;horizontal=1;startSize=26;horizontalStack=0;resizeParent=1;resizeParentMax=0;resizeLast=0;collapsible=1;marginBottom=0;" vertex="1" parent="1">
          <mxGeometry x="31" y="117" width="179" height="80" as="geometry" />
        </mxCell>
        <mxCell id="YsUjoydiSRNC3cudV2yD-5" value="" style="line;strokeWidth=1;fillColor=none;align=left;verticalAlign=middle;spacingTop=-1;spacingLeft=3;spacingRight=3;rotatable=0;labelPosition=right;points=[];portConstraint=eastwest;" vertex="1" parent="YsUjoydiSRNC3cudV2yD-4">
          <mxGeometry y="26" width="179" height="8" as="geometry" />
        </mxCell>
        <mxCell id="YsUjoydiSRNC3cudV2yD-6" value="+ execute()&#xa;+ undo()" style="text;strokeColor=none;fillColor=none;align=left;verticalAlign=top;spacingLeft=4;spacingRight=4;overflow=hidden;rotatable=0;points=[[0,0.5],[1,0.5]];portConstraint=eastwest;" vertex="1" parent="YsUjoydiSRNC3cudV2yD-4">
          <mxGeometry y="34" width="179" height="46" as="geometry" />
        </mxCell>
        <mxCell id="YsUjoydiSRNC3cudV2yD-7" value="MazeMoveCommand" style="swimlane;fontStyle=1;align=center;verticalAlign=top;childLayout=stackLayout;horizontal=1;startSize=26;horizontalStack=0;resizeParent=1;resizeParentMax=0;resizeLast=0;collapsible=1;marginBottom=0;" vertex="1" parent="1">
          <mxGeometry x="163" y="240" width="137" height="70" as="geometry" />
        </mxCell>
        <mxCell id="YsUjoydiSRNC3cudV2yD-8" value="" style="line;strokeWidth=1;fillColor=none;align=left;verticalAlign=middle;spacingTop=-1;spacingLeft=3;spacingRight=3;rotatable=0;labelPosition=right;points=[];portConstraint=eastwest;" vertex="1" parent="YsUjoydiSRNC3cudV2yD-7">
          <mxGeometry y="26" width="137" height="8" as="geometry" />
        </mxCell>
        <mxCell id="YsUjoydiSRNC3cudV2yD-9" value="+ execute()&#xa;+undo()" style="text;strokeColor=none;fillColor=none;align=left;verticalAlign=top;spacingLeft=4;spacingRight=4;overflow=hidden;rotatable=0;points=[[0,0.5],[1,0.5]];portConstraint=eastwest;" vertex="1" parent="YsUjoydiSRNC3cudV2yD-7">
          <mxGeometry y="34" width="137" height="36" as="geometry" />
        </mxCell>
        <mxCell id="YsUjoydiSRNC3cudV2yD-10" value="" style="endArrow=block;endSize=16;endFill=0;html=1;exitX=0.413;exitY=-0.025;exitDx=0;exitDy=0;exitPerimeter=0;dashed=1;" edge="1" parent="1" source="YsUjoydiSRNC3cudV2yD-4">
          <mxGeometry width="160" relative="1" as="geometry">
            <mxPoint x="111" y="110" as="sourcePoint" />
            <mxPoint x="105" y="80" as="targetPoint" />
          </mxGeometry>
        </mxCell>
        <mxCell id="YsUjoydiSRNC3cudV2yD-11" value="" style="endArrow=block;endSize=16;endFill=0;html=1;exitX=0.75;exitY=0;exitDx=0;exitDy=0;dashed=1;entryX=1;entryY=0.5;entryDx=0;entryDy=0;edgeStyle=elbowEdgeStyle;" edge="1" parent="1" source="YsUjoydiSRNC3cudV2yD-7" target="YsUjoydiSRNC3cudV2yD-6">
          <mxGeometry width="160" relative="1" as="geometry">
            <mxPoint x="111" y="220" as="sourcePoint" />
            <mxPoint x="110.57" y="197" as="targetPoint" />
            <Array as="points">
              <mxPoint x="250" y="210" />
            </Array>
          </mxGeometry>
        </mxCell>
        <mxCell id="YsUjoydiSRNC3cudV2yD-12" value="" style="endArrow=open;html=1;endSize=12;startArrow=diamondThin;startSize=14;startFill=0;align=left;verticalAlign=bottom;entryX=0;entryY=0.5;entryDx=0;entryDy=0;exitX=1;exitY=0.5;exitDx=0;exitDy=0;" edge="1" parent="1" source="YsUjoydiSRNC3cudV2yD-15" target="YsUjoydiSRNC3cudV2yD-9">
          <mxGeometry x="-1" y="3" relative="1" as="geometry">
            <mxPoint x="130" y="290" as="sourcePoint" />
            <mxPoint x="100" y="310" as="targetPoint" />
          </mxGeometry>
        </mxCell>
        <mxCell id="YsUjoydiSRNC3cudV2yD-13" value="MazeMover" style="swimlane;fontStyle=1;align=center;verticalAlign=top;childLayout=stackLayout;horizontal=1;startSize=26;horizontalStack=0;resizeParent=1;resizeParentMax=0;resizeLast=0;collapsible=1;marginBottom=0;" vertex="1" parent="1">
          <mxGeometry x="14" y="240" width="109" height="70" as="geometry" />
        </mxCell>
        <mxCell id="YsUjoydiSRNC3cudV2yD-14" value="" style="line;strokeWidth=1;fillColor=none;align=left;verticalAlign=middle;spacingTop=-1;spacingLeft=3;spacingRight=3;rotatable=0;labelPosition=right;points=[];portConstraint=eastwest;" vertex="1" parent="YsUjoydiSRNC3cudV2yD-13">
          <mxGeometry y="26" width="109" height="8" as="geometry" />
        </mxCell>
        <mxCell id="YsUjoydiSRNC3cudV2yD-15" value="+ execute()&#xa;+undo()" style="text;strokeColor=none;fillColor=none;align=left;verticalAlign=top;spacingLeft=4;spacingRight=4;overflow=hidden;rotatable=0;points=[[0,0.5],[1,0.5]];portConstraint=eastwest;" vertex="1" parent="YsUjoydiSRNC3cudV2yD-13">
          <mxGeometry y="34" width="109" height="36" as="geometry" />
        </mxCell>
        <mxCell id="YsUjoydiSRNC3cudV2yD-16" value="Use" style="endArrow=open;endSize=12;dashed=1;html=1;exitX=0.25;exitY=0;exitDx=0;exitDy=0;entryX=0.422;entryY=1.083;entryDx=0;entryDy=0;entryPerimeter=0;" edge="1" parent="1" source="nlGNvuuSfk-lhknSh3Hi-14" target="YsUjoydiSRNC3cudV2yD-15">
          <mxGeometry x="0.0807" y="-9" width="160" relative="1" as="geometry">
            <mxPoint x="123" y="280" as="sourcePoint" />
            <mxPoint x="170" y="280" as="targetPoint" />
            <mxPoint as="offset" />
          </mxGeometry>
        </mxCell>
        <mxCell id="YsUjoydiSRNC3cudV2yD-18" value="PrototypeMazeFactory" style="swimlane;fontStyle=1;align=center;verticalAlign=top;childLayout=stackLayout;horizontal=1;startSize=26;horizontalStack=0;resizeParent=1;resizeParentMax=0;resizeLast=0;collapsible=1;marginBottom=0;" vertex="1" parent="1">
          <mxGeometry x="220" y="930" width="160" height="120" as="geometry" />
        </mxCell>
        <mxCell id="YsUjoydiSRNC3cudV2yD-19" value="" style="line;strokeWidth=1;fillColor=none;align=left;verticalAlign=middle;spacingTop=-1;spacingLeft=3;spacingRight=3;rotatable=0;labelPosition=right;points=[];portConstraint=eastwest;" vertex="1" parent="YsUjoydiSRNC3cudV2yD-18">
          <mxGeometry y="26" width="160" height="8" as="geometry" />
        </mxCell>
        <mxCell id="YsUjoydiSRNC3cudV2yD-20" value="+ makeMaze() : Maze&#xa;+ makeWall() : Wall&#xa;+ makeDoor() : Door&#xa;+ makeRoom() : Room" style="text;strokeColor=none;fillColor=none;align=left;verticalAlign=top;spacingLeft=4;spacingRight=4;overflow=hidden;rotatable=0;points=[[0,0.5],[1,0.5]];portConstraint=eastwest;" vertex="1" parent="YsUjoydiSRNC3cudV2yD-18">
          <mxGeometry y="34" width="160" height="86" as="geometry" />
        </mxCell>
        <mxCell id="YsUjoydiSRNC3cudV2yD-21" value="" style="endArrow=block;endSize=16;endFill=0;html=1;exitX=0.75;exitY=0;exitDx=0;exitDy=0;edgeStyle=orthogonalEdgeStyle;" edge="1" parent="1" source="YsUjoydiSRNC3cudV2yD-18">
          <mxGeometry width="160" relative="1" as="geometry">
            <mxPoint x="340" y="899.01" as="sourcePoint" />
            <mxPoint x="340" y="790" as="targetPoint" />
          </mxGeometry>
        </mxCell>
      </root>
    </mxGraphModel>
  </diagram>
</mxfile>
